<svg width="172" height="172" viewBox="0 0 172 172" fill="none" xmlns="http://www.w3.org/2000/svg">
<rect width="172" height="172" rx="48" fill="white"/>
<path d="M97.7569 67.2742C102.322 67.2742 106.022 63.5738 106.022 59.0091C106.022 54.4445 102.322 50.7441 97.7569 50.7441C93.1923 50.7441 89.4919 54.4445 89.4919 59.0091C89.4919 63.5738 93.1923 67.2742 97.7569 67.2742Z" fill="#FF6600"/>
<path d="M84.6957 80.3933C89.2603 80.3933 92.9607 76.6929 92.9607 72.1282C92.9607 67.5635 89.2603 63.8631 84.6957 63.8631C80.131 63.8631 76.4306 67.5635 76.4306 72.1282C76.4306 76.6929 80.131 80.3933 84.6957 80.3933Z" fill="#FF6600"/>
<path d="M71.6354 93.5123C76.2 93.5123 79.9004 89.8119 79.9004 85.2473C79.9004 80.6826 76.2 76.9822 71.6354 76.9822C67.0707 76.9822 63.3703 80.6826 63.3703 85.2473C63.3703 89.8119 67.0707 93.5123 71.6354 93.5123Z" fill="#FF6600"/>
<path d="M58.5741 106.632C63.1388 106.632 66.8392 102.931 66.8392 98.3668C66.8392 93.8021 63.1388 90.1017 58.5741 90.1017C54.0095 90.1017 50.3091 93.8021 50.3091 98.3668C50.3091 102.931 54.0095 106.632 58.5741 106.632Z" fill="#FF6600"/>
<path d="M45.5138 119.751C50.0785 119.751 53.7788 116.051 53.7788 111.486C53.7788 106.921 50.0785 103.221 45.5138 103.221C40.9491 103.221 37.2487 106.921 37.2487 111.486C37.2487 116.051 40.9491 119.751 45.5138 119.751Z" fill="#FF6600"/>
<path d="M32.4526 132.87C37.0172 132.87 40.7176 129.17 40.7176 124.605C40.7176 120.04 37.0172 116.34 32.4526 116.34C27.8879 116.34 24.1875 120.04 24.1875 124.605C24.1875 129.17 27.8879 132.87 32.4526 132.87Z" fill="#FF6600"/>
<path d="M97.7569 119.751C102.322 119.751 106.022 116.051 106.022 111.486C106.022 106.921 102.322 103.221 97.7569 103.221C93.1923 103.221 89.4919 106.921 89.4919 111.486C89.4919 116.051 93.1923 119.751 97.7569 119.751Z" fill="#FF6600"/>
<path d="M110.817 106.632C115.382 106.632 119.082 102.931 119.082 98.3668C119.082 93.8021 115.382 90.1017 110.817 90.1017C106.253 90.1017 102.552 93.8021 102.552 98.3668C102.552 102.931 106.253 106.632 110.817 106.632Z" fill="#FF6600"/>
<path d="M123.878 93.5123C128.443 93.5123 132.144 89.8119 132.144 85.2473C132.144 80.6826 128.443 76.9822 123.878 76.9822C119.314 76.9822 115.613 80.6826 115.613 85.2473C115.613 89.8119 119.314 93.5123 123.878 93.5123Z" fill="#FF6600"/>
<path d="M136.939 80.3933C141.503 80.3933 145.204 76.6929 145.204 72.1282C145.204 67.5635 141.503 63.8631 136.939 63.8631C132.374 63.8631 128.674 67.5635 128.674 72.1282C128.674 76.6929 132.374 80.3933 136.939 80.3933Z" fill="#FF6600"/>
<path d="M123.878 67.2742C128.443 67.2742 132.144 63.5738 132.144 59.0091C132.144 54.4445 128.443 50.7441 123.878 50.7441C119.314 50.7441 115.613 54.4445 115.613 59.0091C115.613 63.5738 119.314 67.2742 123.878 67.2742Z" fill="#FF6600"/>
<path d="M110.817 80.3933C115.382 80.3933 119.082 76.6929 119.082 72.1282C119.082 67.5635 115.382 63.8631 110.817 63.8631C106.253 63.8631 102.552 67.5635 102.552 72.1282C102.552 76.6929 106.253 80.3933 110.817 80.3933Z" fill="#FF6600"/>
<path d="M97.7569 93.5123C102.322 93.5123 106.022 89.8119 106.022 85.2473C106.022 80.6826 102.322 76.9822 97.7569 76.9822C93.1923 76.9822 89.4919 80.6826 89.4919 85.2473C89.4919 89.8119 93.1923 93.5123 97.7569 93.5123Z" fill="#FF6600"/>
<path d="M84.6957 106.632C89.2603 106.632 92.9607 102.931 92.9607 98.3668C92.9607 93.8021 89.2603 90.1017 84.6957 90.1017C80.131 90.1017 76.4306 93.8021 76.4306 98.3668C76.4306 102.931 80.131 106.632 84.6957 106.632Z" fill="#FF6600"/>
<path d="M71.6354 119.751C76.2 119.751 79.9004 116.051 79.9004 111.486C79.9004 106.921 76.2 103.221 71.6354 103.221C67.0707 103.221 63.3703 106.921 63.3703 111.486C63.3703 116.051 67.0707 119.751 71.6354 119.751Z" fill="#FF6600"/>
<path d="M58.5741 132.87C63.1388 132.87 66.8392 129.17 66.8392 124.605C66.8392 120.04 63.1388 116.34 58.5741 116.34C54.0095 116.34 50.3091 120.04 50.3091 124.605C50.3091 129.17 54.0095 132.87 58.5741 132.87Z" fill="#FF6600"/>
<path d="M58.5741 132.87C63.1388 132.87 66.8392 129.17 66.8392 124.605C66.8392 120.04 63.1388 116.34 58.5741 116.34C54.0095 116.34 50.3091 120.04 50.3091 124.605C50.3091 129.17 54.0095 132.87 58.5741 132.87Z" fill="#FF6600"/>
<path d="M123.878 119.751C128.443 119.751 132.144 116.051 132.144 111.486C132.144 106.921 128.443 103.221 123.878 103.221C119.314 103.221 115.613 106.921 115.613 111.486C115.613 116.051 119.314 119.751 123.878 119.751Z" fill="#FF6600"/>
<path d="M136.939 106.632C141.503 106.632 145.204 102.931 145.204 98.3668C145.204 93.8021 141.503 90.1017 136.939 90.1017C132.374 90.1017 128.674 93.8021 128.674 98.3668C128.674 102.931 132.374 106.632 136.939 106.632Z" fill="#FF6600"/>
<path d="M110.817 54.1551C115.382 54.1551 119.082 50.4547 119.082 45.8901C119.082 41.3254 115.382 37.625 110.817 37.625C106.253 37.625 102.552 41.3254 102.552 45.8901C102.552 50.4547 106.253 54.1551 110.817 54.1551Z" fill="#FF6600"/>
</svg>
